<svg width="828" height="577" viewBox="0 0 828 577" fill="none" xmlns="http://www.w3.org/2000/svg">
<path d="M92.5873 171.658C76.7869 171.658 62.4632 168.262 49.6162 161.469C36.9168 154.529 26.8754 145.004 19.4921 132.895C12.2564 120.639 8.63853 106.832 8.63853 91.4748C8.63853 76.1174 12.2564 62.3843 19.4921 50.2756C26.8754 38.0193 36.9168 28.4947 49.6162 21.702C62.4632 14.7617 76.8607 11.2915 92.8088 11.2915C106.247 11.2915 118.355 13.6542 129.135 18.3795C140.062 23.1049 149.218 29.8976 156.601 38.7576L133.565 60.0217C123.081 47.913 110.086 41.8586 94.5808 41.8586C84.9824 41.8586 76.4177 43.9998 68.8867 48.2821C61.3557 52.4168 55.449 58.2497 51.1667 65.7807C47.032 73.3117 44.9646 81.8764 44.9646 91.4748C44.9646 101.073 47.032 109.638 51.1667 117.169C55.449 124.7 61.3557 130.607 68.8867 134.889C76.4177 139.024 84.9824 141.091 94.5808 141.091C110.086 141.091 123.081 134.963 133.565 122.706L156.601 143.97C149.218 152.978 140.062 159.845 129.135 164.57C118.208 169.295 106.025 171.658 92.5873 171.658ZM233.206 170.772C220.654 170.772 209.357 168.188 199.316 163.019C189.422 157.703 181.67 150.394 176.058 141.091C170.447 131.788 167.641 121.23 167.641 109.416C167.641 97.6029 170.447 87.0447 176.058 77.7417C181.67 68.4387 189.422 61.203 199.316 56.0346C209.357 50.7186 220.654 48.0606 233.206 48.0606C245.757 48.0606 256.98 50.7186 266.874 56.0346C276.767 61.203 284.52 68.4387 290.131 77.7417C295.743 87.0447 298.548 97.6029 298.548 109.416C298.548 121.23 295.743 131.788 290.131 141.091C284.52 150.394 276.767 157.703 266.874 163.019C256.98 168.188 245.757 170.772 233.206 170.772ZM233.206 142.42C242.066 142.42 249.301 139.467 254.913 133.56C260.672 127.506 263.551 119.458 263.551 109.416C263.551 99.3749 260.672 91.4009 254.913 85.4942C249.301 79.4399 242.066 76.4127 233.206 76.4127C224.346 76.4127 217.036 79.4399 211.277 85.4942C205.518 91.4009 202.639 99.3749 202.639 109.416C202.639 119.458 205.518 127.506 211.277 133.56C217.036 139.467 224.346 142.42 233.206 142.42ZM445.242 4.64648V169H412.239V155.267C403.674 165.604 391.27 170.772 375.027 170.772C363.804 170.772 353.615 168.262 344.46 163.241C335.452 158.22 328.364 151.058 323.195 141.755C318.027 132.452 315.443 121.673 315.443 109.416C315.443 97.1599 318.027 86.3802 323.195 77.0772C328.364 67.7742 335.452 60.6123 344.46 55.5916C353.615 50.571 363.804 48.0606 375.027 48.0606C390.236 48.0606 402.124 52.8598 410.688 62.4582V4.64648H445.242ZM381.007 142.42C389.719 142.42 396.955 139.467 402.714 133.56C408.473 127.506 411.353 119.458 411.353 109.416C411.353 99.3749 408.473 91.4009 402.714 85.4942C396.955 79.4399 389.719 76.4127 381.007 76.4127C372.147 76.4127 364.838 79.4399 359.079 85.4942C353.32 91.4009 350.44 99.3749 350.44 109.416C350.44 119.458 353.32 127.506 359.079 133.56C364.838 139.467 372.147 142.42 381.007 142.42ZM596.169 109.859C596.169 110.302 595.948 113.403 595.505 119.162H505.354C506.978 126.546 510.817 132.379 516.872 136.661C522.926 140.943 530.457 143.084 539.465 143.084C545.667 143.084 551.131 142.198 555.856 140.426C560.729 138.507 565.233 135.553 569.368 131.566L587.752 151.501C576.529 164.348 560.138 170.772 538.579 170.772C525.141 170.772 513.254 168.188 502.917 163.019C492.581 157.703 484.607 150.394 478.995 141.091C473.384 131.788 470.578 121.23 470.578 109.416C470.578 97.7506 473.31 87.2662 478.774 77.9632C484.385 68.5125 491.99 61.203 501.588 56.0346C511.334 50.7186 522.188 48.0606 534.149 48.0606C545.815 48.0606 556.373 50.571 565.823 55.5916C575.274 60.6123 582.658 67.848 587.974 77.2987C593.437 86.6017 596.169 97.4553 596.169 109.859ZM534.37 74.1977C526.544 74.1977 519.973 76.4127 514.657 80.8427C509.341 85.2727 506.092 91.3271 504.911 99.0058H563.608C562.427 91.4748 559.178 85.4942 553.862 81.0642C548.546 76.4865 542.049 74.1977 534.37 74.1977ZM789.553 104.986H751.012V142.641H722.438V104.986H684.119V77.9632H722.438V40.3081H751.012V77.9632H789.553V104.986ZM18.3846 192.95H88.8218C105.656 192.95 120.496 196.198 133.343 202.696C146.338 209.045 156.379 218.053 163.468 229.719C170.703 241.384 174.321 254.97 174.321 270.475C174.321 285.98 170.703 299.565 163.468 311.231C156.379 322.897 146.338 331.978 133.343 338.475C120.496 344.825 105.656 348 88.8218 348H18.3846V192.95ZM87.0498 318.54C102.555 318.54 114.885 314.258 124.04 305.693C133.343 296.981 137.995 285.241 137.995 270.475C137.995 255.708 133.343 244.042 124.04 235.478C114.885 226.765 102.555 222.409 87.0498 222.409H54.2677V318.54H87.0498ZM317.892 288.859C317.892 289.302 317.67 292.403 317.227 298.162H227.076C228.701 305.546 232.54 311.379 238.594 315.661C244.649 319.943 252.18 322.084 261.187 322.084C267.389 322.084 272.853 321.198 277.578 319.426C282.451 317.507 286.955 314.553 291.09 310.566L309.475 330.501C298.252 343.348 281.861 349.772 260.301 349.772C246.864 349.772 234.976 347.188 224.64 342.019C214.303 336.703 206.329 329.394 200.718 320.091C195.106 310.788 192.301 300.23 192.301 288.416C192.301 276.751 195.033 266.266 200.496 256.963C206.108 247.513 213.712 240.203 223.311 235.035C233.057 229.719 243.91 227.061 255.871 227.061C267.537 227.061 278.095 229.571 287.546 234.592C296.997 239.612 304.38 246.848 309.696 256.299C315.16 265.602 317.892 276.455 317.892 288.859ZM256.093 253.198C248.267 253.198 241.695 255.413 236.379 259.843C231.063 264.273 227.815 270.327 226.633 278.006H285.331C284.15 270.475 280.901 264.494 275.585 260.064C270.269 255.487 263.772 253.198 256.093 253.198ZM383.203 349.772C373.309 349.772 363.637 348.591 354.187 346.228C344.736 343.718 337.205 340.617 331.593 336.925L343.111 312.117C348.427 315.513 354.851 318.319 362.382 320.534C369.913 322.601 377.296 323.635 384.532 323.635C399.151 323.635 406.461 320.017 406.461 312.781C406.461 309.385 404.467 306.949 400.48 305.472C396.493 303.995 390.365 302.74 382.096 301.706C372.35 300.23 364.302 298.532 357.952 296.612C351.602 294.692 346.065 291.296 341.339 286.423C336.762 281.55 334.473 274.609 334.473 265.602C334.473 258.071 336.614 251.426 340.896 245.667C345.326 239.76 351.676 235.182 359.946 231.934C368.363 228.685 378.256 227.061 389.627 227.061C398.044 227.061 406.387 228.02 414.656 229.94C423.073 231.712 430.014 234.222 435.477 237.471L423.959 262.058C413.475 256.151 402.031 253.198 389.627 253.198C382.243 253.198 376.706 254.231 373.014 256.299C369.322 258.366 367.477 261.024 367.477 264.273C367.477 267.964 369.47 270.549 373.457 272.025C377.444 273.502 383.794 274.905 392.506 276.234C402.252 277.858 410.226 279.63 416.428 281.55C422.63 283.322 428.02 286.644 432.598 291.517C437.175 296.39 439.464 303.183 439.464 311.895C439.464 319.279 437.249 325.85 432.819 331.609C428.389 337.368 421.892 341.872 413.327 345.12C404.91 348.222 394.869 349.772 383.203 349.772ZM462.999 228.833H497.553V348H462.999V228.833ZM480.276 212.22C473.926 212.22 468.758 210.374 464.771 206.683C460.784 202.991 458.79 198.413 458.79 192.95C458.79 187.486 460.784 182.908 464.771 179.216C468.758 175.525 473.926 173.679 480.276 173.679C486.625 173.679 491.794 175.451 495.781 178.995C499.768 182.539 501.761 186.969 501.761 192.285C501.761 198.044 499.768 202.843 495.781 206.683C491.794 210.374 486.625 212.22 480.276 212.22ZM654.77 228.833V328.065C654.77 349.92 649.085 366.163 637.714 376.795C626.344 387.427 609.731 392.743 587.877 392.743C576.359 392.743 565.431 391.34 555.095 388.535C544.758 385.729 536.193 381.668 529.4 376.352L543.134 351.544C548.154 355.679 554.504 358.927 562.183 361.29C569.861 363.8 577.54 365.056 585.219 365.056C597.18 365.056 605.966 362.324 611.577 356.86C617.336 351.544 620.216 343.422 620.216 332.495V327.4C611.208 337.294 598.656 342.241 582.561 342.241C571.633 342.241 561.592 339.878 552.437 335.153C543.429 330.28 536.267 323.487 530.951 314.775C525.635 306.063 522.977 296.021 522.977 284.651C522.977 273.28 525.635 263.239 530.951 254.527C536.267 245.814 543.429 239.095 552.437 234.37C561.592 229.497 571.633 227.061 582.561 227.061C599.838 227.061 612.98 232.746 621.988 244.116V228.833H654.77ZM589.427 313.889C598.583 313.889 606.04 311.231 611.799 305.915C617.705 300.451 620.659 293.363 620.659 284.651C620.659 275.938 617.705 268.924 611.799 263.608C606.04 258.145 598.583 255.413 589.427 255.413C580.272 255.413 572.741 258.145 566.834 263.608C560.927 268.924 557.974 275.938 557.974 284.651C557.974 293.363 560.927 300.451 566.834 305.915C572.741 311.231 580.272 313.889 589.427 313.889ZM761.576 227.061C776.343 227.061 788.23 231.491 797.238 240.351C806.393 249.211 810.971 262.353 810.971 279.778V348H776.417V285.094C776.417 275.643 774.35 268.629 770.215 264.051C766.08 259.326 760.1 256.963 752.273 256.963C743.561 256.963 736.621 259.695 731.452 265.159C726.284 270.475 723.7 278.449 723.7 289.081V348H689.146V228.833H722.149V242.787C726.727 237.766 732.412 233.927 739.205 231.269C745.998 228.463 753.455 227.061 761.576 227.061Z" fill="#BF3A27"/>
<path d="M321.333 449.504C326.352 445.68 331.96 442.7 337.937 440.678C344.064 438.616 350.468 437.497 356.931 437.357C370.3 437.12 383.426 440.943 394.576 448.323C405.99 455.867 414.894 466.643 420.151 479.274C420.842 480.842 421.402 482.462 421.971 484.08C422.457 485.723 423.001 487.354 423.377 489.028C424.215 492.359 424.806 495.747 425.145 499.164L425.364 501.731L425.448 504.303L425.482 505.589L425.457 506.876C425.436 507.734 425.43 508.592 425.392 509.45C425.207 512.885 424.793 516.304 424.153 519.684C422.781 526.439 420.44 532.961 417.201 539.046C415.569 542.068 413.717 544.966 411.66 547.717C409.628 550.476 407.382 553.07 404.941 555.475C395.248 565.142 382.883 571.684 369.438 574.26C366.143 574.902 362.801 575.277 359.446 575.383C349.496 575.78 339.587 573.913 330.464 569.924C324.548 567.309 319.065 563.805 314.207 559.534C309.482 555.355 305.452 550.452 302.267 545.007C304.468 547.15 306.796 549.158 309.239 551.019C311.627 552.856 314.13 554.538 316.732 556.055C318.055 556.76 319.323 557.527 320.674 558.149L322.666 559.12L324.707 559.976C326.046 560.577 327.453 561.02 328.814 561.538C329.501 561.782 330.211 561.968 330.904 562.185C331.605 562.383 332.285 562.633 333 562.782C334.417 563.108 335.8 563.516 337.23 563.742L339.351 564.136L341.49 564.41C342.904 564.628 344.343 564.673 345.759 564.806C347.183 564.88 348.61 564.893 350.027 564.902C355.662 564.833 361.262 564.009 366.678 562.452C368.027 562.107 369.331 561.607 370.648 561.18C371.936 560.656 373.242 560.197 374.49 559.595C375.762 559.053 376.992 558.421 378.225 557.807C378.835 557.486 379.429 557.134 380.031 556.801C380.638 556.476 381.224 556.115 381.803 555.742C384.135 554.294 386.367 552.69 388.483 550.941C390.602 549.213 392.589 547.329 394.427 545.305C398.13 541.312 401.257 536.821 403.716 531.962C406.201 527.146 407.991 522 409.031 516.681C409.558 514.024 409.911 511.336 410.087 508.633C410.231 505.921 410.2 503.204 409.996 500.496C409.811 497.787 409.424 495.096 408.839 492.444C408.59 491.108 408.185 489.81 407.848 488.492C407.415 487.205 407.072 485.884 406.572 484.617C406.137 483.323 405.578 482.08 405.058 480.816C404.464 479.588 403.921 478.329 403.243 477.14C401.961 474.711 400.513 472.374 398.91 470.144C397.303 467.897 395.537 465.767 393.626 463.772C391.728 461.738 389.681 459.849 387.501 458.12C378.579 450.97 367.872 446.395 356.538 444.887C350.693 444.101 344.77 444.085 338.92 444.84C332.886 445.654 326.978 447.221 321.333 449.504Z" fill="#BE3A26"/>
<path fill-rule="evenodd" clip-rule="evenodd" d="M319.271 551.982C305.548 540.796 302.882 526.327 307.16 509.866C306.987 509.831 306.816 509.796 306.643 509.761C305.982 511.492 305.198 513.187 304.695 514.962C304.174 516.875 303.781 518.821 303.519 520.787C303.244 522.702 303.101 524.642 303.018 526.578C302.936 528.502 303 530.433 303 532.38C301.485 530.071 300.488 527.462 300.075 524.732C298.839 517.972 299.561 511.291 301.153 504.691C302.08 500.845 303.283 497.065 304.355 493.253C304.39 493.127 304.397 492.996 304.374 492.867C304.352 492.739 304.3 492.618 304.224 492.512C298.538 500.973 294.329 509.932 294.746 520.488C295.765 517.429 296.784 514.369 297.803 511.309C297.928 511.353 298.053 511.396 298.178 511.44C295.898 525.206 299.143 536.83 306.982 544.505C297.857 540.774 288.523 526.236 292.37 511.636C290.04 513.936 288.904 519.749 289.734 525.12C288.049 523.591 286.75 518.643 286.653 513.686C286.546 509.541 287.304 505.419 288.879 501.583C285.389 504.467 284.006 508.039 283.089 511.934C280.562 507.751 282.47 496.939 290.72 489.801C286.394 490.483 283.393 494.236 280.293 502.909C279.644 494.776 283.256 489.127 290.344 485.101C286.798 485.152 283.756 484.633 280.82 482.448C288.675 483.261 295.301 480.348 301.983 477.629C307.898 475.222 313.793 472.756 319.788 470.563C322.935 469.336 326.376 469.074 329.672 469.812C331.339 470.212 332.922 470.96 334.728 471.398C333.043 470.178 331.358 468.958 329.672 467.737C332.484 467.406 335.334 467.653 338.047 468.464C340.829 469.226 343.541 470.242 346.714 471.289C345.889 470.269 345.324 469.479 344.668 468.777C340.996 465.008 336.452 462.201 331.437 460.604C324.426 458.161 317.257 457.049 309.85 458.419C309.565 458.472 309.284 458.55 309.003 458.62C308.766 458.67 308.537 458.755 308.325 458.872C318.316 458.109 327.852 459.482 336.625 464.572C325.425 461.146 314.323 460.541 303.371 465.553C306.162 464.926 308.933 464.183 311.748 463.707C314.601 463.224 317.497 463.023 320.351 464.011C316.461 464.516 312.686 465.259 309.707 468.108C317.021 465.494 324.346 463.209 332.083 466.332C323.134 466.108 315.149 470.222 306.648 471.989C299.537 473.466 292.448 474.13 285.369 471.993C276.828 469.412 270.61 463.762 265.479 456.699C274.803 464.056 284.943 468.241 297.001 465.122C289.554 465.134 282.331 464.171 275.846 460.052C285.081 463.365 295.061 464.014 304.646 461.923C302.009 461.923 299.646 462.047 297.301 461.889C294.931 461.764 292.577 461.44 290.261 460.92C287.964 460.257 285.701 459.478 283.482 458.586C283.531 458.422 283.58 458.259 283.628 458.094C284.821 458.303 286.012 458.525 287.207 458.718C291.985 459.489 296.538 458.512 301.072 457.078C305.634 455.635 310.175 453.915 314.862 453.125C323.594 451.653 332.196 452.301 340.022 457.064C343.642 459.232 346.361 462.631 347.679 466.639C347.732 466.773 347.772 466.913 347.797 467.055C347.788 467.191 347.763 467.325 347.721 467.455C342.437 461.498 335.79 458.293 328.02 457.281C335.928 459.88 343.437 463.102 348.691 470.427C348.918 465.313 346.6 461.665 343.323 458.403C345.254 458.586 347.283 459.829 351.115 462.872C350.61 462.217 350.158 461.519 349.598 460.917C346.196 457.267 341.866 455.116 337.247 453.526C331.721 451.496 325.834 450.634 319.958 450.994C322.73 449.94 325.68 449.435 328.645 449.505C337.457 449.494 345.351 452.499 352.699 457.125C357.631 460.07 361.943 463.946 365.394 468.538C366.236 469.72 366.924 471.005 367.44 472.362C368.207 474.363 367.704 475.377 365.794 476.351C363.132 477.708 362.815 479.757 365.144 481.71C369.455 485.327 373.883 488.803 378.215 492.394C379.767 493.704 381.209 495.14 382.527 496.687C378.947 496.905 375.956 495.204 372.665 494.187C373.253 494.785 373.883 495.34 374.55 495.85C376.367 497.054 378.229 498.191 380.091 499.326C380.948 499.849 381.565 500.437 381.214 501.555C380.829 502.79 379.879 502.795 378.862 502.653C376.781 502.364 374.705 502.044 372.983 503.75C372.823 503.908 372.43 503.885 372.152 503.861C367.969 503.494 364.988 505.545 362.656 508.715C360.298 511.919 359.123 515.482 359.986 519.511C360.395 521.324 361.408 522.944 362.86 524.106C363.231 524.424 363.793 525.086 363.688 525.279C363.397 525.808 362.927 526.216 362.363 526.43C361.138 526.82 359.851 527.018 358.891 527.227C358.279 525.906 357.792 524.529 357.44 523.116C357.026 520.469 356.902 517.777 356.669 515.224C355.948 515.526 355.948 515.526 355.621 519.007C354.183 517.732 352.778 516.319 351.202 515.133C349.346 513.738 347.317 512.576 345.413 511.242C344.561 510.644 343.851 509.864 344.625 508.698C344.498 508.664 344.384 508.596 344.341 508.628C343.465 509.241 342.597 509.867 341.728 510.49C342.514 511.266 343.174 512.294 344.113 512.768C346.262 513.852 348.547 514.666 350.879 515.631C348.217 516.463 345.817 517.973 343.914 520.013C342.012 522.052 340.672 524.551 340.026 527.264C338.492 532.996 340.385 538.141 343.523 543.03C341.081 542.101 336.608 538.414 333.608 534.393C331.027 530.931 328.789 527.213 326.395 523.602C330.402 539.805 341.205 550.13 355.983 557.414C340.129 555.157 328.295 547.713 321.394 533.178C322.295 541.218 327.776 546.739 331.837 553.134C330.312 551.993 328.788 550.85 326.98 549.496C328.981 553.552 331.953 556.373 334.97 559.322C334.09 558.922 333.178 558.58 332.332 558.113C324.669 553.868 318.573 547.273 314.942 539.301C313.172 535.575 312.168 531.484 310.816 527.559C310.743 527.348 310.659 527.141 310.536 526.816C309.637 529.769 309.898 533.161 311.296 537.411C312.994 542.217 315.407 546.74 318.452 550.828C318.724 551.214 318.997 551.598 319.271 551.982ZM324.928 532.154C325.046 531.955 325.101 531.9 325.09 531.877C324.989 531.659 324.884 531.441 324.764 531.233C320.07 523.087 317.344 514.419 318.136 504.92C318.655 498.693 321.352 493.78 327.466 491.383C329.267 490.782 331.102 490.286 332.961 489.896C332.394 489.871 331.767 489.803 331.144 489.824C330.272 489.827 329.401 489.895 328.539 490.028C321.348 491.378 317.076 496.097 314.402 502.527C312.051 508.355 311.247 514.693 312.069 520.924C312.617 526.79 314.665 532.418 318.016 537.264C318.091 537.389 318.175 537.509 318.266 537.622C318.451 537.781 318.646 537.929 318.847 538.066C315.388 529.805 313.761 521.668 315.963 513.094C317.677 520.047 320.142 526.596 324.928 532.154V532.154ZM356.056 482.111C347.407 475.48 337.744 473.853 327.351 476.797C318.826 479.213 310.417 488.229 309.549 495.402C314.926 485.333 322.262 478.148 334.707 478.138C333.418 484.072 336.933 487.409 340.825 490.54C340.435 489.689 339.95 488.885 339.378 488.143C338.486 487.062 337.656 485.931 336.893 484.755C336.449 484.09 336.198 483.315 336.167 482.517C336.137 481.718 336.327 480.927 336.718 480.23C340.096 485.23 343.695 487.109 346.725 485.527C340.141 483.195 337.543 481.031 337.752 477.927C344.435 476.844 350.16 479.858 356.056 482.111ZM332.019 473.118C330.669 472.289 329.249 471.576 327.777 470.989C325.1 470.181 322.468 470.901 319.99 471.94C312.389 475.123 306.755 480.613 302.283 487.389C299.681 491.182 297.965 495.51 297.259 500.055C297.452 499.783 297.609 499.488 297.727 499.176C300.015 493.342 303.318 487.959 307.482 483.276C311.635 478.774 316.38 475.084 322.497 473.827C325.434 473.223 328.522 473.353 332.019 473.118ZM330.748 521.665C329.952 518.367 328.974 515.27 328.488 512.098C327.538 505.894 329.465 499.962 335.532 497.331C335.658 497.277 335.747 497.14 335.944 496.956C335.283 497.049 334.723 497.1 334.175 497.208C328.699 498.293 325.735 502.075 325.972 507.663C326.188 512.752 328.309 517.179 330.748 521.665ZM352.743 498.224C357.717 496.88 362.866 496.294 368.016 496.485C362.863 495.588 357.562 496.192 352.743 498.224ZM364.546 491.087C364.633 490.891 364.72 490.695 364.806 490.5C362.406 489.594 360.734 486.674 357.477 487.891C359.894 488.985 362.22 490.036 364.546 491.087V491.087ZM352.921 500.236C356.608 499.247 360.089 498.314 363.436 497.416C359.865 497.424 356.43 498.538 352.921 500.236ZM360.149 503.191C362.811 501.868 365.471 500.545 368.222 499.179C365.209 499.734 362.412 501.124 360.149 503.191Z" fill="#16141A"/>
<path fill-rule="evenodd" clip-rule="evenodd" d="M282.971 475.908C278.791 474.062 275.309 470.933 273.027 466.975C283.547 475.746 295.593 475.501 308.123 473.222C307.473 473.564 306.826 473.915 306.171 474.246C301.055 476.828 295.839 479.144 290.076 479.83C285.587 480.363 281.467 479.6 278.247 476.075C278.121 475.936 278.021 475.774 277.893 475.601C279.58 475.874 281.224 476.139 282.867 476.404C282.901 476.24 282.936 476.074 282.971 475.908Z" fill="#16141A"/>
<path fill-rule="evenodd" clip-rule="evenodd" d="M363.759 508.35C363.539 510.272 363.431 512.204 363.436 514.138C363.548 516.339 364.835 518.113 366.232 519.758C366.388 519.943 366.554 520.12 366.709 520.306C368.023 521.902 368.11 522.715 367.052 523.511C365.698 524.534 364.151 524.246 363.039 522.729C363.517 522.359 363.975 521.963 364.411 521.544C364.771 521.119 365.105 520.672 365.411 520.206C365.228 520.046 365.167 519.944 365.097 519.938C361.707 519.674 360.478 518.211 360.958 514.772C361.337 512.43 362.301 510.222 363.759 508.35Z" fill="#16141A"/>
<path fill-rule="evenodd" clip-rule="evenodd" d="M373.105 505.152C369.148 507.227 366.105 509.839 364.474 514.084C364.304 513.404 364.225 512.706 364.238 512.005C364.481 510.351 364.85 508.712 365.244 507.084C365.322 506.761 365.694 506.469 365.993 506.244C366.987 505.471 368.163 504.965 369.407 504.774C370.652 504.583 371.925 504.713 373.105 505.152Z" fill="#16141A"/>
<path fill-rule="evenodd" clip-rule="evenodd" d="M374.371 503.845C374.805 503.942 375.658 503.89 375.95 504.269C376.094 504.553 376.175 504.864 376.189 505.181C376.203 505.498 376.149 505.815 376.031 506.11C375.502 507.481 374.81 508.784 373.97 509.989C374.097 508.02 374.226 506.05 374.371 503.845Z" fill="#16141A"/>
<path fill-rule="evenodd" clip-rule="evenodd" d="M377.171 510.15C377.613 509.087 377.941 508.446 378.145 507.767C378.349 507.088 378.432 506.373 378.592 505.549C379.028 505.572 379.523 505.597 380.178 505.63C379.874 507.558 378.803 508.82 377.171 510.15Z" fill="#16141A"/>
<path fill-rule="evenodd" clip-rule="evenodd" d="M364.574 520.91C364.275 521.153 363.941 521.349 363.582 521.489C363.075 521.628 362.541 521.633 362.031 521.505C361.826 521.435 361.819 520.774 361.722 520.38C362.199 520.334 362.677 520.313 363.155 520.316C363.534 520.362 363.908 520.436 364.275 520.54C364.374 520.663 364.475 520.787 364.574 520.91Z" fill="#16141A"/>
<path d="M19.3267 574.791V437.73H76.467C82.25 437.671 87.9673 438.96 93.1652 441.495C98.1622 443.939 102.624 447.352 106.293 451.533C109.949 455.699 112.856 460.466 114.883 465.625C116.912 470.69 117.96 476.095 117.971 481.551C117.983 487.149 117.003 492.704 115.076 497.96C113.216 503.115 110.437 507.89 106.872 512.052C103.338 516.166 99.0032 519.516 94.131 521.898C88.9887 524.385 83.3377 525.641 77.6258 525.565H36.7011V574.791H19.3267ZM36.7011 510.122H76.6597C80.0402 510.173 83.3837 509.412 86.4086 507.902C89.3116 506.416 91.8499 504.307 93.8411 501.724C95.9625 498.966 97.5948 495.865 98.6669 492.554C99.8374 489.005 100.424 485.289 100.404 481.551C100.454 474.119 97.8145 466.919 92.972 461.281C90.7803 458.756 88.0842 456.717 85.057 455.297C82.0686 453.89 78.8049 453.164 75.5019 453.173H36.7011V510.122Z" fill="#16141A"/>
<path d="M139.591 574.791V437.73H198.276C204.059 437.671 209.776 438.96 214.974 441.495C219.971 443.939 224.433 447.352 228.101 451.533C231.757 455.699 234.664 460.466 236.691 465.625C238.721 470.69 239.769 476.095 239.78 481.551C239.793 486.227 239.11 490.879 237.752 495.354C236.469 499.655 234.514 503.727 231.962 507.419C229.479 510.995 226.412 514.127 222.889 516.685C219.315 519.275 215.288 521.174 211.017 522.284L244.22 574.791H224.529L193.257 525.565H156.964V574.791H139.591ZM156.964 510.122H198.468C201.86 510.172 205.21 509.376 208.217 507.805C211.11 506.263 213.643 504.125 215.649 501.531C217.771 498.774 219.404 495.672 220.475 492.361C221.635 488.876 222.222 485.225 222.213 481.551C222.237 477.82 221.549 474.118 220.186 470.644C218.898 467.342 217.071 464.276 214.781 461.571C212.596 458.989 209.902 456.885 206.866 455.393C203.894 453.927 200.624 453.167 197.31 453.174H156.964V510.122Z" fill="#16141A"/>
<path d="M552.84 539.464C552.9 544.47 551.81 549.424 549.654 553.942C547.585 558.248 544.624 562.065 540.967 565.139C537.198 568.286 532.878 570.707 528.227 572.282C523.224 573.984 517.971 574.832 512.686 574.791H447.631V437.73H515.775C520.276 437.669 524.721 438.73 528.709 440.819C532.488 442.812 535.834 445.535 538.554 448.83C541.286 452.166 543.409 455.956 544.828 460.027C546.285 464.084 547.036 468.361 547.048 472.671C547.093 479.325 545.324 485.865 541.932 491.589C538.57 497.338 533.465 501.868 527.357 504.523C534.835 506.583 541.398 511.106 545.986 517.36C550.553 523.605 552.837 530.973 552.84 539.464ZM465.004 452.788V498.539H508.632C511.565 498.574 514.468 497.947 517.126 496.705C519.649 495.52 521.913 493.847 523.786 491.782C527.718 487.373 529.884 481.667 529.867 475.76C529.888 472.668 529.365 469.597 528.323 466.687C527.383 464.016 525.978 461.533 524.173 459.351C522.432 457.291 520.256 455.643 517.802 454.525C515.291 453.367 512.556 452.774 509.791 452.788L465.004 452.788ZM535.273 536.375C535.276 533.308 534.719 530.266 533.631 527.399C532.603 524.619 531.101 522.039 529.191 519.774C527.347 517.604 525.081 515.831 522.532 514.562C519.891 513.261 516.981 512.6 514.038 512.631H465.004V559.734H512.686C515.754 559.767 518.789 559.107 521.567 557.804C524.235 556.541 526.655 554.808 528.709 552.687C532.921 548.302 535.273 542.456 535.272 536.375L535.273 536.375Z" fill="#16141A"/>
<path d="M633.528 560.12C641.506 560.12 648.134 558.575 653.412 555.487C658.536 552.542 662.874 548.403 666.056 543.422C669.306 538.219 671.564 532.459 672.716 526.434C674.003 520.047 674.65 513.548 674.646 507.033V437.73H692.02V507.033C692.067 515.915 690.997 524.768 688.835 533.383C686.903 541.273 683.461 548.713 678.7 555.294C673.984 561.669 667.79 566.803 660.65 570.255C653.248 573.923 644.272 575.756 633.721 575.756C622.781 575.756 613.579 573.826 606.116 569.965C598.958 566.367 592.768 561.104 588.066 554.618C583.382 547.994 580.038 540.518 578.221 532.611C576.216 524.233 575.212 515.647 575.229 507.033V437.73H592.603V507.033C592.585 513.681 593.265 520.313 594.63 526.82C595.83 532.816 598.12 538.542 601.387 543.711C604.555 548.619 608.859 552.691 613.935 555.583C619.146 558.609 625.677 560.121 633.528 560.12Z" fill="#16141A"/>
<path d="M803.406 466.494C801.603 464.474 799.523 462.719 797.229 461.281C794.473 459.516 791.566 457.997 788.542 456.745C785.14 455.337 781.619 454.239 778.02 453.464C774.12 452.617 770.14 452.196 766.149 452.209C755.464 452.209 747.646 454.203 742.693 458.193C737.737 462.183 735.26 467.653 735.262 474.602C735.139 477.824 735.871 481.021 737.385 483.867C739.008 486.513 741.307 488.679 744.045 490.141C747.613 492.102 751.405 493.625 755.338 494.678C759.841 495.966 765.182 497.318 771.36 498.732C777.863 500.117 784.277 501.89 790.568 504.041C795.797 505.783 800.741 508.287 805.24 511.472C809.157 514.274 812.337 517.984 814.506 522.283C816.629 526.53 817.691 531.742 817.691 537.919C817.691 544.483 816.404 550.178 813.83 555.004C811.313 559.765 807.709 563.865 803.31 566.972C798.554 570.268 793.215 572.627 787.576 573.923C781.125 575.447 774.515 576.193 767.886 576.142C757.675 576.199 747.526 574.535 737.868 571.219C728.495 567.986 719.769 563.117 712.097 556.837L720.398 542.166C722.811 544.65 725.499 546.852 728.409 548.73C731.941 551.051 735.691 553.023 739.605 554.618C743.98 556.417 748.5 557.838 753.118 558.865C758.092 559.976 763.175 560.526 768.272 560.506C778.051 560.506 785.644 558.769 791.052 555.294C796.456 551.819 799.159 546.607 799.159 539.657C799.276 536.221 798.368 532.828 796.553 529.908C794.582 527.059 791.971 524.712 788.928 523.056C784.987 520.879 780.809 519.163 776.477 517.94C771.521 516.462 765.89 514.95 759.586 513.403C753.375 511.951 747.252 510.147 741.246 507.999C736.515 506.358 732.057 504.015 728.022 501.048C724.585 498.474 721.834 495.093 720.012 491.204C718.103 486.825 717.181 482.08 717.308 477.305C717.186 471.309 718.44 465.365 720.976 459.931C723.378 454.964 726.876 450.608 731.208 447.19C735.853 443.578 741.167 440.921 746.844 439.372C753.253 437.586 759.881 436.709 766.535 436.767C782.909 436.472 798.853 442.015 811.514 452.403L803.406 466.494Z" fill="#16141A"/>
<path d="M681.021 353.152C683.652 358.039 685.344 363.113 686.096 368.375C686.847 373.45 686.753 378.712 685.814 384.162C684.874 389.612 683.182 394.969 680.739 400.231C678.296 405.493 675.477 410.474 672.282 415.172C665.704 425.321 657.999 434.718 649.165 443.363C640.332 452.009 631.029 459.996 621.256 467.326C617.497 470.333 613.645 473.246 609.698 476.065C605.751 478.696 601.617 481.327 597.294 483.958C592.22 487.153 586.957 490.066 581.507 492.698C576.245 495.517 570.7 497.678 564.874 499.181C559.8 500.685 554.538 501.343 549.087 501.155C543.825 501.155 539.033 499.557 534.71 496.362C532.079 494.483 530.105 492.134 528.79 489.315C527.662 486.495 526.816 483.582 526.253 480.575C525.689 477.38 525.407 474.185 525.407 470.99C525.595 467.795 525.783 464.788 525.971 461.969C526.159 459.338 526.253 456.801 526.253 454.358C526.441 451.915 526.722 449.377 527.098 446.746C527.098 446.182 527.098 445.619 527.098 445.055C527.286 444.303 527.38 443.645 527.38 443.081C524.937 446.84 522.494 450.599 520.051 454.358C517.795 457.929 515.352 461.593 512.721 465.352C508.398 471.366 503.888 477.286 499.189 483.113C494.491 488.939 489.51 494.577 484.248 500.027C479.55 504.726 474.663 509.048 469.589 512.995C464.702 517.13 459.44 520.795 453.802 523.99C451.171 525.305 449.291 525.493 448.164 524.553C446.848 523.802 445.908 522.956 445.344 522.016C444.969 520.889 444.593 519.385 444.217 517.506C444.217 516.19 444.311 514.874 444.499 513.559C444.687 512.431 444.875 511.21 445.063 509.894C445.626 506.699 446.19 503.504 446.754 500.309C447.318 497.114 447.976 493.919 448.727 490.724C450.795 482.079 453.144 473.716 455.775 465.634C458.594 457.365 461.319 449.001 463.95 440.544C466.582 432.839 469.119 425.321 471.562 417.991C474.193 410.474 476.918 402.956 479.737 395.439C485.376 380.215 491.672 365.368 498.625 350.897C505.767 336.237 514.224 322.33 523.997 309.174C525.125 307.859 526.347 307.577 527.662 308.328C528.226 308.704 528.602 309.268 528.79 310.02C529.166 310.772 529.072 311.429 528.508 311.993C525.313 316.316 522.212 320.826 519.205 325.525C516.386 330.035 513.661 334.734 511.029 339.62C503.136 353.716 496.182 368.281 490.168 383.316C484.342 398.164 478.892 413.199 473.817 428.422C471.186 436.503 468.461 444.585 465.642 452.666C463.011 460.56 460.474 468.547 458.03 476.629C456.715 480.951 455.587 485.18 454.647 489.315C453.708 493.637 452.768 497.96 451.828 502.282C451.452 504.35 451.171 506.323 450.983 508.203C450.607 510.082 450.231 512.055 449.855 514.123V517.224C449.855 517.6 450.137 517.975 450.701 518.351C451.077 518.915 452.016 518.821 453.52 518.069C453.896 517.694 454.178 517.506 454.366 517.506V517.224C463.199 511.773 471.186 505.383 478.328 498.054C485.658 490.724 492.423 483.019 498.625 474.937C503.136 469.299 507.459 463.473 511.593 457.459C515.728 451.445 519.675 445.337 523.433 439.135L529.354 428.986C529.354 428.798 529.354 428.704 529.354 428.704C529.542 428.516 529.636 428.328 529.636 428.14C530.763 422.69 532.361 417.052 534.428 411.226C536.495 405.399 539.69 400.513 544.013 396.566C544.953 395.627 545.986 395.533 547.114 396.284C548.242 396.848 548.711 397.788 548.523 399.103C547.96 402.674 547.02 406.057 545.704 409.252C544.389 412.447 542.979 415.642 541.476 418.837C540.348 420.904 539.22 422.972 538.093 425.039C536.965 427.106 535.838 429.174 534.71 431.241C534.522 431.617 534.428 431.993 534.428 432.369C534.428 432.557 534.334 432.839 534.146 433.215C533.206 438.665 532.549 444.115 532.173 449.565C531.985 455.016 531.703 460.466 531.327 465.916C531.139 468.923 531.045 471.93 531.045 474.937C531.233 477.944 531.797 480.951 532.737 483.958C533.112 485.086 533.582 486.308 534.146 487.623C534.71 488.751 535.462 489.784 536.401 490.724C536.965 491.1 537.435 491.476 537.811 491.852C538.375 492.228 538.939 492.604 539.502 492.979C539.878 493.355 540.348 493.543 540.912 493.543C541.664 493.919 542.04 494.107 542.04 494.107C544.295 495.047 546.55 495.611 548.805 495.799C551.061 495.986 553.41 495.892 555.853 495.517C558.484 495.141 561.115 494.483 563.747 493.543C566.566 492.791 569.291 491.946 571.922 491.006C577.372 488.939 582.541 486.495 587.427 483.676C592.501 480.669 597.388 477.568 602.086 474.373C606.221 471.742 610.168 469.017 613.927 466.198C617.873 463.191 621.726 460.184 625.485 457.177C635.446 448.908 644.373 440.45 652.266 431.805C656.401 427.482 660.254 422.878 663.825 417.991C667.396 413.105 670.59 407.937 673.41 402.486C675.853 397.976 677.826 393.183 679.33 388.109C680.833 383.035 681.397 377.96 681.021 372.886C681.021 370.443 680.645 367.999 679.894 365.556C679.33 363.113 678.578 360.858 677.638 358.79C675.383 353.716 672.094 349.299 667.771 345.541C662.885 340.842 657.435 337.177 651.421 334.546C645.407 331.727 639.111 329.754 632.533 328.626C625.767 327.31 618.813 326.84 611.671 327.216C604.718 327.592 597.952 328.814 591.374 330.881C589.682 331.445 588.555 330.881 587.991 329.19C587.615 327.31 588.273 326.089 589.964 325.525C596.354 323.458 603.308 322.236 610.826 321.86C617.967 321.484 625.015 321.86 631.969 322.988C639.111 324.115 645.97 326.089 652.548 328.908C658.374 331.539 663.731 334.922 668.617 339.057C673.691 343.003 677.826 347.702 681.021 353.152ZM699.999 434.06C701.315 432.745 702.631 432.745 703.946 434.06C705.262 435.376 705.262 436.691 703.946 438.007C701.879 439.698 699.811 441.39 697.744 443.081C695.865 444.585 693.797 445.994 691.542 447.31C690.602 447.874 689.569 448.532 688.441 449.283C687.313 449.847 686.186 450.317 685.058 450.693C684.118 451.069 683.085 451.351 681.957 451.539C680.83 451.727 679.702 451.539 678.574 450.975C675.943 449.471 674.815 447.216 675.191 444.209C675.379 441.202 675.755 438.571 676.319 436.316C676.695 435 677.071 433.778 677.447 432.651C677.822 431.335 678.198 430.114 678.574 428.986C678.95 427.858 679.326 426.731 679.702 425.603C680.266 424.475 680.642 423.254 680.83 421.938C681.205 420.247 682.333 419.589 684.212 419.965C685.528 420.529 686.186 421.656 686.186 423.348C685.81 425.415 685.152 427.482 684.212 429.55C683.461 431.429 682.803 433.402 682.239 435.47C681.863 436.785 681.581 438.007 681.393 439.135C681.205 440.262 681.017 441.39 680.83 442.518C680.642 443.081 680.548 443.927 680.548 445.055C680.548 445.243 680.548 445.337 680.548 445.337C680.736 445.337 680.83 445.431 680.83 445.619C680.83 445.806 680.923 445.994 681.111 446.182H681.393C681.769 446.182 681.957 446.182 681.957 446.182C682.145 445.994 682.333 445.9 682.521 445.9C682.897 445.713 683.273 445.525 683.649 445.337C684.025 445.149 684.4 444.961 684.776 444.773C685.716 444.209 686.656 443.739 687.595 443.363C688.535 442.799 689.475 442.142 690.414 441.39C692.106 440.45 693.703 439.417 695.207 438.289C696.898 436.973 698.496 435.564 699.999 434.06ZM692.106 378.242C691.354 378.618 690.602 378.618 689.851 378.242C689.287 377.678 688.911 377.02 688.723 376.269C688.159 374.765 688.817 373.638 690.696 372.886C692.576 372.322 694.361 371.758 696.053 371.194C697.932 370.443 699.717 369.691 701.409 368.939C702.161 368.751 702.818 368.939 703.382 369.503C704.134 369.879 704.604 370.349 704.792 370.912C705.356 372.416 704.792 373.544 703.1 374.295C701.221 375.047 699.342 375.705 697.462 376.269C695.771 376.833 693.985 377.49 692.106 378.242ZM759.485 399.949C752.719 400.701 745.953 401.359 739.187 401.923C732.421 402.486 725.655 403.144 718.89 403.896C716.258 411.038 713.721 418.273 711.278 425.603C709.023 432.745 706.673 439.886 704.23 447.028C701.411 456.049 698.592 464.882 695.773 473.528C692.766 482.173 689.853 490.912 687.034 499.745L678.576 526.245C677.261 530.567 676.039 534.89 674.912 539.213C673.596 543.723 672.186 548.14 670.683 552.462C670.119 554.154 668.992 554.718 667.3 554.154C665.421 553.778 664.763 552.744 665.327 551.053C667.206 545.415 668.992 539.683 670.683 533.856C672.374 528.218 674.066 522.58 675.757 516.942C677.449 511.304 679.234 505.665 681.114 500.027C682.993 494.389 684.872 488.751 686.752 483.113C695.209 456.989 703.948 430.771 712.969 404.46L670.965 408.688C669.085 408.688 668.146 407.749 668.146 405.869C668.146 404.366 669.085 403.426 670.965 403.05L714.943 398.821L722.554 377.678C723.306 375.799 724.434 375.141 725.937 375.705C727.629 376.081 728.287 377.208 727.911 379.088C726.595 382.283 725.374 385.478 724.246 388.673C723.118 391.868 721.991 395.063 720.863 398.258L758.639 394.593H759.767C760.33 394.593 760.894 394.781 761.458 395.157C762.21 395.345 762.586 395.908 762.586 396.848C762.774 397.976 762.586 398.728 762.022 399.103C761.458 399.479 760.894 399.761 760.33 399.949H759.485ZM759.645 434.06C760.209 433.496 760.773 433.308 761.337 433.496C762.089 433.496 762.746 433.778 763.31 434.342C763.874 434.718 764.156 435.282 764.156 436.034C764.344 436.785 764.156 437.443 763.592 438.007C761.901 439.886 760.115 441.578 758.236 443.081C756.356 444.585 754.383 446.088 752.316 447.592L746.396 451.821C745.456 452.196 744.516 452.666 743.577 453.23C742.637 453.606 741.603 453.888 740.476 454.076C738.408 454.076 736.905 453.23 735.965 451.539C735.025 449.847 734.931 448.062 735.683 446.182L737.374 439.417C737.374 439.041 737.374 438.759 737.374 438.571C737.562 438.383 737.656 438.101 737.656 437.725C733.71 439.792 730.327 442.705 727.508 446.464C724.689 450.035 722.151 453.794 719.896 457.741C719.332 458.68 718.581 459.056 717.641 458.868C716.513 458.68 715.667 458.211 715.104 457.459C714.916 457.271 714.822 456.895 714.822 456.331C714.822 455.767 715.01 455.11 715.386 454.358C715.573 453.982 715.761 453.7 715.949 453.512C715.949 453.136 716.043 452.76 716.231 452.384C716.419 452.009 716.513 451.727 716.513 451.539C716.513 451.351 716.607 451.069 716.795 450.693C717.171 449.565 717.359 448.908 717.359 448.72L718.205 446.182C718.768 445.431 719.05 444.585 719.05 443.645C724.313 428.798 729.481 413.951 734.555 399.103C739.63 384.256 744.704 369.409 749.779 354.562C750.342 352.87 751.47 352.306 753.161 352.87C755.041 353.246 755.699 354.28 755.135 355.971L726.38 439.698C730.515 435.564 735.119 432.557 740.194 430.677C741.133 430.301 741.885 430.395 742.449 430.959C743.201 431.523 743.577 432.275 743.577 433.215C743.577 435.282 743.295 437.255 742.731 439.135C742.355 441.014 741.979 442.893 741.603 444.773C741.415 445.337 741.227 445.994 741.039 446.746C740.851 447.498 740.757 448.062 740.757 448.438H741.321C743.013 447.498 744.61 446.464 746.114 445.337C747.805 444.209 749.403 443.081 750.906 441.954C754.101 439.698 757.014 437.067 759.645 434.06Z" fill="#DB9F4B"/>
</svg>
