<svg width="150" height="80" viewBox="0 0 237 83" fill="none" xmlns="http://www.w3.org/2000/svg">
<path d="M92.23 12.5367C93.6499 11.455 95.2365 10.6117 96.9275 10.0398C98.6609 9.45645 100.473 9.13966 102.301 9.10028C106.083 9.03297 109.797 10.1147 112.952 12.2026C116.181 14.3368 118.7 17.3855 120.187 20.959C120.382 21.4027 120.541 21.861 120.702 22.3188C120.84 22.7835 120.993 23.2449 121.1 23.7187C121.337 24.6609 121.504 25.6195 121.6 26.5864L121.662 27.3124L121.686 28.0401L121.695 28.4041L121.688 28.7681C121.682 29.0108 121.68 29.2536 121.67 29.4962C121.618 30.4681 121.5 31.4353 121.319 32.3916C120.931 34.3028 120.269 36.1479 119.352 37.8695C118.891 38.7244 118.367 39.5443 117.785 40.3225C117.21 41.1031 116.574 41.837 115.884 42.5175C113.142 45.2523 109.643 47.1034 105.84 47.8321C104.907 48.0136 103.962 48.1198 103.013 48.1496C100.198 48.262 97.3943 47.734 94.8133 46.6054C93.1394 45.8655 91.5884 44.8742 90.214 43.6659C88.8772 42.4837 87.737 41.0964 86.8359 39.556C87.4586 40.1622 88.1173 40.7302 88.8085 41.2569C89.484 41.7766 90.192 42.2524 90.9283 42.6816C91.3025 42.881 91.6613 43.0981 92.0434 43.274L92.6071 43.5487L93.1844 43.7909C93.5634 43.9609 93.9615 44.0862 94.3464 44.2328C94.5408 44.3019 94.7416 44.3545 94.9378 44.4159C95.1362 44.4718 95.3285 44.5427 95.5306 44.5847C95.9316 44.6771 96.3228 44.7925 96.7274 44.8563L97.3276 44.9678L97.9326 45.0452C98.3328 45.107 98.7398 45.1198 99.1404 45.1575C99.5433 45.1784 99.9469 45.1819 100.348 45.1845C101.942 45.165 103.526 44.9319 105.059 44.4914C105.44 44.3937 105.809 44.2524 106.182 44.1316C106.546 43.9832 106.916 43.8535 107.269 43.683C107.629 43.5299 107.977 43.3509 108.325 43.1771C108.498 43.0864 108.666 42.9867 108.837 42.8927C109.008 42.8008 109.174 42.6986 109.338 42.5931C109.998 42.1835 110.629 41.7297 111.228 41.2348C111.827 40.7458 112.389 40.2128 112.909 39.6401C113.957 38.5106 114.842 37.24 115.537 35.8654C116.241 34.5027 116.747 33.047 117.041 31.542C117.19 30.7904 117.29 30.0298 117.34 29.2651C117.38 28.498 117.372 27.7291 117.314 26.9632C117.262 26.1968 117.152 25.4353 116.987 24.6852C116.916 24.307 116.802 23.9398 116.706 23.5671C116.584 23.2029 116.487 22.8292 116.345 22.4706C116.222 22.1047 116.064 21.7528 115.917 21.3953C115.749 21.048 115.595 20.6918 115.404 20.3553C115.041 19.6682 114.631 19.0069 114.178 18.3761C113.723 17.7403 113.223 17.1378 112.683 16.5733C112.146 15.9979 111.567 15.4635 110.95 14.9744C108.426 12.9516 105.397 11.657 102.19 11.2306C100.536 11.0082 98.8605 11.0036 97.2056 11.2171C95.4984 11.4474 93.8269 11.8908 92.23 12.5367Z" fill="#BE3A26"/>
<path fill-rule="evenodd" clip-rule="evenodd" d="M91.6463 41.5294C87.7638 38.3645 87.0097 34.2712 88.22 29.614C88.1709 29.6042 88.1224 29.5943 88.0736 29.5844C87.8867 30.074 87.6648 30.5535 87.5226 31.0557C87.3751 31.597 87.2639 32.1475 87.1897 32.7036C87.1119 33.2456 87.0715 33.7943 87.048 34.342C87.0249 34.8865 87.043 35.4327 87.043 35.9836C86.6144 35.3304 86.3322 34.5922 86.2155 33.8197C85.8657 31.9074 86.0702 30.0171 86.5204 28.1501C86.7827 27.0618 87.1231 25.9925 87.4263 24.9139C87.4364 24.8784 87.4383 24.8412 87.4318 24.8049C87.4254 24.7686 87.4108 24.7342 87.3892 24.7044C85.7805 27.0979 84.5899 29.6326 84.7079 32.6191C84.996 31.7537 85.2843 30.8881 85.5726 30.0223C85.6079 30.0347 85.6434 30.0469 85.6787 30.0592C85.0337 33.9539 85.9517 37.2427 88.1696 39.414C85.5879 38.3584 82.9474 34.2452 84.0356 30.1147C83.3763 30.7655 83.055 32.4101 83.2899 33.9295C82.813 33.4969 82.4456 32.0971 82.4181 30.6947C82.3879 29.522 82.6023 28.3558 83.0479 27.2705C82.0605 28.0865 81.6692 29.0972 81.41 30.1992C80.6951 29.0157 81.2348 25.9567 83.5689 23.9373C82.3448 24.1304 81.4957 25.1922 80.6189 27.6458C80.4353 25.3447 81.457 23.7467 83.4624 22.6077C82.4591 22.6221 81.5987 22.4753 80.768 21.8572C82.9901 22.0871 84.8648 21.2629 86.7552 20.4936C88.4287 19.8127 90.0966 19.115 91.7927 18.4946C92.683 18.1475 93.6565 18.0735 94.589 18.2821C95.0606 18.3953 95.5085 18.607 96.0193 18.7309C95.5426 18.3858 95.0658 18.0405 94.589 17.6952C95.3845 17.6015 96.1908 17.6715 96.9583 17.9008C97.7452 18.1165 98.5126 18.4039 99.4105 18.7001C99.1769 18.4114 99.0172 18.1879 98.8314 17.9893C97.7925 16.9229 96.507 16.1288 95.0884 15.6772C93.1046 14.986 91.0766 14.6712 88.981 15.0588C88.9004 15.0739 88.8209 15.0959 88.7413 15.1158C88.6741 15.1299 88.6095 15.1539 88.5494 15.1871C91.376 14.9712 94.074 15.3595 96.5561 16.7997C93.3875 15.8304 90.2465 15.6592 87.148 17.0773C87.9375 16.9 88.7214 16.6896 89.5179 16.5549C90.3251 16.4183 91.1445 16.3615 91.9518 16.6411C90.8512 16.7838 89.7832 16.9941 88.9405 17.8002C91.0096 17.0605 93.082 16.4142 95.271 17.2977C92.7393 17.2341 90.4802 18.3981 88.0751 18.898C86.0631 19.316 84.0576 19.5039 82.0548 18.8991C79.6385 18.1691 77.8794 16.5705 76.4277 14.5722C79.0657 16.6536 81.9344 17.8376 85.3457 16.9552C83.2389 16.9587 81.1955 16.6862 79.3608 15.521C81.9733 16.4583 84.7968 16.6417 87.5087 16.0504C86.7627 16.0504 86.094 16.0855 85.4307 16.0405C84.7603 16.0054 84.094 15.9137 83.4391 15.7664C82.789 15.5788 82.1488 15.3584 81.521 15.1061C81.535 15.0597 81.5487 15.0137 81.5624 14.9671C81.9 15.0261 82.2369 15.0888 82.575 15.1435C83.9266 15.3615 85.2149 15.0853 86.4976 14.6796C87.7882 14.2712 89.0729 13.7847 90.3988 13.5612C92.8693 13.1447 95.3029 13.3281 97.517 14.6757C98.5413 15.2888 99.3105 16.2505 99.6835 17.3845C99.6984 17.4225 99.7095 17.4619 99.7166 17.5021C99.7142 17.5406 99.7071 17.5787 99.6952 17.6154C98.2004 15.9301 96.3199 15.0233 94.1214 14.737C96.3587 15.4723 98.4833 16.3839 99.9696 18.456C100.034 17.0094 99.378 15.9773 98.4511 15.0544C98.9973 15.1061 99.5713 15.4577 100.655 16.3187C100.513 16.1335 100.385 15.9358 100.226 15.7657C99.2639 14.733 98.0387 14.1244 96.732 13.6745C95.1686 13.1004 93.5031 12.8565 91.8408 12.9582C92.625 12.6602 93.4596 12.5172 94.2983 12.5371C96.7915 12.5338 99.0248 13.3841 101.104 14.6929C102.499 15.5261 103.719 16.6227 104.695 17.9216C104.933 18.2562 105.128 18.6198 105.274 19.0037C105.491 19.5697 105.349 19.8565 104.808 20.1321C104.055 20.516 103.966 21.0957 104.624 21.6484C105.844 22.6715 107.097 23.6549 108.322 24.6709C108.762 25.0416 109.17 25.4478 109.542 25.8854C108.53 25.9472 107.683 25.466 106.752 25.1783C106.919 25.3474 107.097 25.5046 107.285 25.6486C107.8 25.9894 108.326 26.3111 108.853 26.6322C109.096 26.7801 109.27 26.9465 109.171 27.2626C109.062 27.612 108.793 27.6135 108.505 27.5735C107.917 27.4915 107.329 27.401 106.842 27.8839C106.797 27.9284 106.686 27.9219 106.607 27.9151C105.424 27.8113 104.58 28.3915 103.921 29.2884C103.253 30.195 102.921 31.2029 103.165 32.3426C103.281 32.8557 103.568 33.3141 103.978 33.6428C104.083 33.7327 104.242 33.9199 104.213 33.9747C104.13 34.1242 103.997 34.2396 103.838 34.3001C103.491 34.4106 103.127 34.4665 102.855 34.5258C102.682 34.152 102.545 33.7625 102.445 33.3627C102.328 32.6139 102.293 31.8522 102.227 31.1298C102.023 31.2155 102.023 31.2155 101.93 32.2001C101.523 31.8394 101.126 31.4396 100.68 31.1041C100.155 30.7095 99.5809 30.3808 99.0424 30.0033C98.8012 29.8341 98.6003 29.6133 98.8192 29.2835C98.7834 29.2739 98.7512 29.2548 98.7388 29.2637C98.491 29.4372 98.2456 29.6143 97.9996 29.7906C98.2222 30.0102 98.4089 30.301 98.6744 30.435C99.2823 30.7417 99.9288 30.972 100.589 31.2451C99.8356 31.4805 99.1566 31.9077 98.6183 32.4846C98.08 33.0616 97.7009 33.7686 97.5182 34.5362C97.0842 36.158 97.6199 37.6135 98.5075 38.9966C97.8167 38.7337 96.5511 37.6908 95.7025 36.553C94.9724 35.5736 94.3391 34.5216 93.6619 33.5C94.7954 38.0842 97.8517 41.0054 102.033 43.066C97.5474 42.4276 94.1993 40.3216 92.247 36.2093C92.5017 38.4841 94.0526 40.0459 95.2014 41.8551C94.7701 41.5323 94.3387 41.2089 93.8273 40.8259C94.3935 41.9733 95.2342 42.7717 96.0879 43.6059C95.8388 43.4928 95.5807 43.3959 95.3414 43.2639C93.1735 42.0628 91.4488 40.197 90.4214 37.9416C89.9207 36.8875 89.6368 35.7302 89.2543 34.6195C89.2337 34.5598 89.2099 34.5015 89.175 34.4093C88.9208 35.2449 88.9946 36.2046 89.39 37.407C89.8705 38.7667 90.553 40.0463 91.4145 41.2029C91.4914 41.3119 91.5687 41.4207 91.6463 41.5294ZM93.2467 35.9196C93.2802 35.8632 93.2958 35.8479 93.2926 35.8411C93.2639 35.7796 93.2343 35.718 93.2004 35.6591C91.8724 33.3544 91.1011 30.9022 91.3253 28.2147C91.472 26.4531 92.2351 25.0631 93.9646 24.3848C94.4744 24.215 94.9935 24.0746 95.5193 23.9643C95.359 23.9571 95.1817 23.938 95.0053 23.9438C94.7586 23.9447 94.5123 23.964 94.2684 24.0016C92.2338 24.3835 91.0252 25.7187 90.2687 27.5376C89.6036 29.1866 89.3763 30.9796 89.6086 32.7424C89.7638 34.4022 90.3432 35.9942 91.2913 37.3654C91.3125 37.4007 91.3361 37.4346 91.3619 37.4667C91.4144 37.5115 91.4693 37.5534 91.5265 37.5921C90.5476 35.255 90.0874 32.9529 90.7103 30.5272C91.1953 32.4945 91.8928 34.3473 93.2467 35.9197V35.9196ZM102.053 21.7618C99.6064 19.8856 96.8727 19.4254 93.9323 20.2583C91.5203 20.9418 89.1413 23.4925 88.8958 25.5221C90.417 22.6733 92.4926 20.6406 96.0133 20.6377C95.6486 22.3165 96.6432 23.2607 97.7444 24.1464C97.6339 23.9057 97.4965 23.6783 97.335 23.4684C97.0824 23.1625 96.8477 22.8424 96.6318 22.5097C96.5063 22.3216 96.4353 22.1025 96.4265 21.8766C96.4178 21.6506 96.4717 21.4267 96.5822 21.2295C97.538 22.644 98.5562 23.1758 99.4134 22.7282C97.5507 22.0685 96.8158 21.4562 96.875 20.5779C98.7654 20.2716 100.385 21.1244 102.053 21.7618ZM95.253 19.2175C94.8708 18.9828 94.4693 18.7813 94.0528 18.615C93.2954 18.3865 92.5507 18.5903 91.8496 18.8841C89.6994 19.7848 88.1054 21.338 86.8401 23.2551C86.1041 24.328 85.6184 25.5526 85.4188 26.8383C85.4733 26.7614 85.5178 26.6779 85.5512 26.5897C86.1984 24.9391 87.1328 23.4161 88.3111 22.0913C89.486 20.8177 90.8283 19.7737 92.559 19.4182C93.3899 19.2473 94.2636 19.284 95.253 19.2175ZM94.8934 32.9521C94.668 32.019 94.3913 31.143 94.2538 30.2456C93.985 28.4903 94.5303 26.8121 96.2468 26.0676C96.2825 26.0524 96.3075 26.0135 96.3633 25.9617C96.1762 25.988 96.0179 26.0022 95.8629 26.0328C94.3137 26.34 93.4751 27.4097 93.5422 28.9909C93.6032 30.4306 94.2033 31.683 94.8934 32.9521ZM101.116 26.3202C102.523 25.9401 103.98 25.7743 105.437 25.8284C103.979 25.5747 102.479 25.7454 101.116 26.3202ZM104.455 24.3012C104.48 24.2457 104.504 24.1904 104.529 24.1352C103.85 23.8787 103.377 23.0528 102.455 23.397C103.139 23.7065 103.797 24.0038 104.455 24.3013V24.3012ZM101.167 26.8894C102.209 26.6097 103.194 26.3457 104.141 26.0917C103.131 26.0939 102.159 26.4093 101.167 26.8894ZM103.211 27.7255C103.964 27.3514 104.717 26.9771 105.495 26.5904C104.643 26.7475 103.851 27.1407 103.211 27.7255Z" fill="#16141A"/>
<path fill-rule="evenodd" clip-rule="evenodd" d="M81.3756 20.007C80.1933 19.4847 79.208 18.5994 78.5625 17.4795C81.5387 19.961 84.9466 19.8915 88.4916 19.247C88.3076 19.3437 88.1247 19.4431 87.9393 19.5365C86.4921 20.2671 85.0164 20.9224 83.3858 21.1164C82.1159 21.2671 80.9503 21.0513 80.0393 20.0539C80.0035 20.0148 79.9753 19.9688 79.9391 19.9199C80.4165 19.9971 80.8814 20.0721 81.3462 20.1472C81.356 20.1006 81.3658 20.0539 81.3756 20.007Z" fill="#16141A"/>
<path fill-rule="evenodd" clip-rule="evenodd" d="M104.233 29.1852C104.171 29.7288 104.14 30.2756 104.142 30.8227C104.173 31.4453 104.537 31.9472 104.933 32.4126C104.977 32.4651 105.024 32.5149 105.067 32.5678C105.439 33.0191 105.464 33.2493 105.165 33.4745C104.781 33.7638 104.344 33.6823 104.029 33.2533C104.164 33.1485 104.294 33.0365 104.417 32.9178C104.519 32.7976 104.614 32.6712 104.7 32.5394C104.649 32.4941 104.631 32.4652 104.611 32.4636C103.652 32.3889 103.305 31.975 103.44 31.0021C103.548 30.3396 103.82 29.7147 104.233 29.1852Z" fill="#16141A"/>
<path fill-rule="evenodd" clip-rule="evenodd" d="M106.876 28.2803C105.757 28.8674 104.896 29.6065 104.434 30.8073C104.386 30.6151 104.364 30.4174 104.368 30.2193C104.436 29.7512 104.541 29.2874 104.652 28.827C104.674 28.7354 104.78 28.6529 104.864 28.5892C105.145 28.3706 105.478 28.2276 105.83 28.1735C106.182 28.1195 106.542 28.1562 106.876 28.2803Z" fill="#16141A"/>
<path fill-rule="evenodd" clip-rule="evenodd" d="M107.235 27.9106C107.357 27.9382 107.599 27.9233 107.681 28.0307C107.722 28.1109 107.745 28.1988 107.749 28.2886C107.753 28.3784 107.738 28.468 107.704 28.5514C107.555 28.9394 107.359 29.3079 107.121 29.649C107.157 29.0917 107.194 28.5344 107.235 27.9106Z" fill="#16141A"/>
<path fill-rule="evenodd" clip-rule="evenodd" d="M108.026 29.6944C108.151 29.3938 108.244 29.2123 108.302 29.0202C108.36 28.8281 108.383 28.6257 108.428 28.3927C108.552 28.3991 108.692 28.4062 108.877 28.4156C108.791 28.9612 108.488 29.3181 108.026 29.6944Z" fill="#16141A"/>
<path fill-rule="evenodd" clip-rule="evenodd" d="M104.463 32.7385C104.379 32.8073 104.284 32.8626 104.182 32.9025C104.039 32.9416 103.888 32.9431 103.744 32.9068C103.686 32.887 103.684 32.6999 103.656 32.5887C103.791 32.5756 103.926 32.5695 104.062 32.5705C104.169 32.5834 104.275 32.6045 104.379 32.6338C104.407 32.6687 104.435 32.7037 104.463 32.7385Z" fill="#16141A"/>
<path d="M6.78711 47.9823V9.20579H22.953C24.5891 9.18886 26.2066 9.55352 27.6771 10.2708C29.0908 10.9624 30.3532 11.9277 31.3911 13.1108C32.4256 14.2893 33.2479 15.6381 33.8214 17.0975C34.3955 18.5305 34.692 20.0596 34.6952 21.6033C34.6985 23.187 34.4212 24.7587 33.876 26.2456C33.3499 27.7041 32.5635 29.055 31.5549 30.2325C30.5553 31.3965 29.3288 32.3442 27.9504 33.0179C26.4955 33.7217 24.8968 34.0769 23.2808 34.0555H11.7026V47.9823H6.78711ZM11.7026 29.6864H23.0075C23.9639 29.701 24.9098 29.4856 25.7656 29.0583C26.5869 28.6381 27.305 28.0412 27.8684 27.3106C28.4685 26.5304 28.9303 25.6528 29.2336 24.7163C29.5648 23.712 29.7308 22.6607 29.7252 21.6032C29.7393 19.5006 28.9925 17.4638 27.6225 15.8686C27.0024 15.1542 26.2396 14.5774 25.3832 14.1756C24.5377 13.7775 23.6144 13.5723 22.6799 13.5748H11.7026V29.6864Z" fill="#16141A"/>
<path d="M40.8115 47.9823V9.20579H57.4143C59.0504 9.18888 60.6679 9.55354 62.1385 10.2708C63.5522 10.9624 64.8145 11.9277 65.8523 13.1108C66.8868 14.2893 67.7091 15.6381 68.2826 17.0975C68.8569 18.5305 69.1535 20.0596 69.1566 21.6033C69.1603 22.9263 68.9669 24.2424 68.5829 25.5084C68.2197 26.7252 67.6668 27.8772 66.9446 28.9218C66.2422 29.9335 65.3744 30.8197 64.3777 31.5432C63.3666 32.2759 62.2275 32.8131 61.019 33.1271L70.4126 47.9823H64.8418L55.9945 34.0555H45.7267V47.9823H40.8115ZM45.7267 29.6864H57.4689C58.4284 29.7006 59.3763 29.4754 60.2268 29.031C61.0453 28.5947 61.762 27.9897 62.3295 27.256C62.9299 26.4759 63.3917 25.5983 63.6948 24.6617C64.0232 23.6756 64.1892 22.6427 64.1864 21.6033C64.1933 20.5477 63.9987 19.5004 63.613 18.5176C63.2486 17.5834 62.7319 16.7159 62.0839 15.9506C61.4659 15.22 60.7035 14.625 59.8447 14.2029C59.0039 13.7881 58.0787 13.5732 57.1411 13.5749H45.7267V29.6864Z" fill="#16141A"/>
<path d="M157.726 37.9878C157.743 39.4041 157.435 40.8055 156.825 42.0839C156.24 43.3021 155.402 44.3819 154.367 45.2515C153.301 46.1418 152.079 46.827 150.763 47.2723C149.347 47.7538 147.861 47.9938 146.366 47.9823H127.961V9.20579H147.24C148.513 9.18842 149.771 9.48872 150.899 10.0795C151.968 10.6435 152.915 11.4139 153.685 12.3461C154.457 13.2898 155.058 14.3621 155.46 15.5139C155.872 16.6616 156.084 17.8716 156.088 19.0911C156.1 20.9735 155.6 22.8238 154.64 24.4433C153.689 26.0697 152.245 27.3513 150.517 28.1025C152.632 28.6854 154.489 29.965 155.787 31.7343C157.079 33.5009 157.725 35.5854 157.726 37.9878ZM132.876 13.4657V26.4094H145.219C146.049 26.4192 146.87 26.2419 147.622 25.8905C148.336 25.5554 148.977 25.0821 149.506 24.4979C150.619 23.2505 151.231 21.6362 151.227 19.9649C151.233 19.0903 151.085 18.2214 150.79 17.398C150.524 16.6424 150.126 15.9398 149.616 15.3226C149.123 14.7398 148.508 14.2735 147.813 13.9573C147.103 13.6296 146.329 13.4618 145.547 13.4657L132.876 13.4657ZM152.756 37.1138C152.757 36.2461 152.6 35.3856 152.292 34.5743C152.001 33.788 151.576 33.0581 151.036 32.417C150.514 31.8032 149.873 31.3016 149.151 30.9425C148.404 30.5745 147.581 30.3874 146.748 30.3964H132.876V43.7224H146.366C147.234 43.7318 148.093 43.5451 148.878 43.1763C149.633 42.819 150.318 42.3288 150.899 41.7289C152.091 40.4881 152.756 38.8343 152.756 37.1139L152.756 37.1138Z" fill="#16141A"/>
<path d="M180.554 43.8316C182.811 43.8316 184.686 43.3947 186.18 42.5209C187.629 41.6877 188.857 40.5167 189.757 39.1074C190.676 37.6356 191.315 36.0061 191.641 34.3014C192.005 32.4945 192.188 30.6557 192.187 28.8124V9.20581H197.102V28.8124C197.116 31.3254 196.813 33.83 196.201 36.2674C195.655 38.4995 194.681 40.6045 193.334 42.4663C192 44.2699 190.247 45.7224 188.227 46.6989C186.133 47.7366 183.594 48.2554 180.609 48.2553C177.514 48.2553 174.91 47.7092 172.799 46.617C170.774 45.599 169.023 44.11 167.692 42.275C166.367 40.4009 165.421 38.286 164.907 36.049C164.34 33.6788 164.056 31.2496 164.061 28.8124V9.20581H168.976V28.8124C168.971 30.6934 169.163 32.5697 169.549 34.4106C169.889 36.107 170.537 37.7268 171.461 39.1893C172.357 40.5778 173.575 41.7299 175.011 42.5481C176.485 43.4041 178.333 43.8319 180.554 43.8316Z" fill="#16141A"/>
<path d="M228.615 17.3435C228.105 16.7719 227.517 16.2754 226.867 15.8688C226.088 15.3692 225.265 14.9397 224.41 14.5853C223.447 14.1871 222.451 13.8764 221.433 13.657C220.33 13.4173 219.203 13.2983 218.074 13.3019C215.052 13.3019 212.84 13.8663 211.439 14.995C210.036 16.1239 209.336 17.6713 209.336 19.6373C209.301 20.5488 209.508 21.4533 209.937 22.2587C210.396 23.0072 211.046 23.6199 211.821 24.0337C212.83 24.5884 213.903 25.0193 215.016 25.3171C216.29 25.6816 217.801 26.0639 219.549 26.464C221.388 26.856 223.203 27.3576 224.983 27.966C226.462 28.459 227.861 29.1675 229.134 30.0686C230.242 30.8611 231.142 31.9107 231.755 33.1271C232.356 34.3286 232.656 35.8032 232.657 37.5508C232.657 39.4077 232.292 41.0188 231.564 42.3842C230.852 43.7312 229.832 44.8913 228.588 45.7703C227.242 46.7026 225.732 47.37 224.137 47.7366C222.311 48.168 220.441 48.3789 218.566 48.3647C215.677 48.3806 212.806 47.9098 210.073 46.9719C207.421 46.0572 204.953 44.6796 202.782 42.903L205.131 38.7523C205.814 39.455 206.574 40.0779 207.397 40.6092C208.396 41.266 209.457 41.8239 210.565 42.275C211.802 42.7841 213.081 43.186 214.388 43.4765C215.795 43.7908 217.233 43.9466 218.675 43.9409C221.442 43.9409 223.59 43.4494 225.12 42.4664C226.649 41.4833 227.413 40.0086 227.414 38.0425C227.446 37.0704 227.19 36.1104 226.676 35.2844C226.119 34.4782 225.38 33.8142 224.519 33.3456C223.404 32.7299 222.222 32.2443 220.996 31.8984C219.594 31.4802 218.001 31.0523 216.218 30.6148C214.46 30.2039 212.728 29.6934 211.029 29.0857C209.69 28.6217 208.429 27.9589 207.288 27.1195C206.315 26.391 205.537 25.4345 205.021 24.3343C204.482 23.0953 204.221 21.7529 204.257 20.4019C204.222 18.7057 204.577 17.0241 205.294 15.4867C205.974 14.0815 206.964 12.849 208.189 11.8822C209.503 10.8603 211.007 10.1086 212.613 9.67027C214.426 9.16502 216.301 8.91689 218.184 8.93314C222.816 8.84991 227.327 10.418 230.909 13.3568L228.615 17.3435Z" fill="#16141A"/>
<path d="M115.662 75.7761V62.0978H111.299V60.3483H121.858V62.0978H117.516V75.7761H115.662Z" fill="#BE3A26"/>
<path d="M129.782 71.2025H122.142V71.3502C122.142 72.3828 122.437 73.2171 123.028 73.8529C123.321 74.1681 123.679 74.4164 124.078 74.581C124.476 74.7455 124.905 74.8225 125.335 74.8066C125.958 74.8137 126.568 74.6318 127.085 74.2849C127.661 73.874 128.134 73.3347 128.465 72.7095L129.719 73.5524C129.302 74.3711 128.66 75.0539 127.869 75.5206C127.078 75.9872 126.169 76.2184 125.251 76.187C123.783 76.187 122.595 75.7023 121.689 74.7328C120.783 73.7633 120.33 72.4917 120.33 70.918C120.33 69.4077 120.78 68.1713 121.679 67.2087C122.12 66.7343 122.658 66.3599 123.256 66.1109C123.854 65.8619 124.498 65.7439 125.146 65.765C126.572 65.765 127.701 66.2217 128.534 67.135C129.366 68.0483 129.783 69.2952 129.783 70.8758L129.782 71.2025ZM128.012 69.8642C127.956 69.0143 127.673 68.3592 127.164 67.8989C126.655 67.4386 125.957 67.2085 125.072 67.2087C124.333 67.1783 123.611 67.4396 123.063 67.9364C122.515 68.4332 122.185 69.1256 122.142 69.8642L128.012 69.8642Z" fill="#BE3A26"/>
<path d="M139.667 73.4892V75.4073C139.21 75.6759 138.714 75.873 138.197 75.992C137.619 76.1258 137.026 76.1912 136.432 76.187C134.943 76.187 133.743 75.7145 132.833 74.7696C131.924 73.8249 131.469 72.5832 131.469 71.0444C131.469 69.499 131.939 68.2362 132.881 67.256C133.347 66.7712 133.909 66.3897 134.532 66.1365C135.154 65.8832 135.823 65.7638 136.495 65.7859C137.022 65.7852 137.546 65.8417 138.06 65.9546C138.557 66.0629 139.04 66.2291 139.499 66.4499V68.2202C139.093 67.9539 138.654 67.7431 138.192 67.5933C137.749 67.4504 137.287 67.3776 136.822 67.3773C135.74 67.3773 134.872 67.7163 134.219 68.3941C133.566 69.072 133.239 69.973 133.239 71.0972C133.227 71.5568 133.308 72.0141 133.477 72.4415C133.647 72.8689 133.901 73.2576 134.224 73.5841C134.545 73.9125 134.93 74.171 135.355 74.3433C135.781 74.5156 136.237 74.5979 136.696 74.5852C137.196 74.585 137.692 74.4957 138.16 74.3217C138.698 74.1134 139.205 73.8334 139.667 73.4892Z" fill="#BE3A26"/>
<path d="M141.965 75.776V59.4422H143.577V67.6197C143.95 67.0395 144.465 66.5643 145.074 66.2392C145.701 65.9268 146.396 65.7712 147.097 65.786C148.235 65.786 149.124 66.0881 149.763 66.6923C150.402 67.2965 150.722 68.136 150.722 69.2109V75.776H149.036V70.096C149.036 69.1197 148.83 68.3944 148.419 67.92C148.008 67.4458 147.374 67.2087 146.517 67.2087C146.055 67.2026 145.598 67.2942 145.174 67.4773C144.782 67.6473 144.436 67.9094 144.167 68.2414C143.963 68.4958 143.814 68.7901 143.73 69.1055C143.621 69.6606 143.577 70.2265 143.598 70.7918V75.7761L141.965 75.776Z" fill="#BE3A26"/>
<path d="M153.988 75.7761V66.1338H155.601V67.6197C155.974 67.0395 156.489 66.5643 157.097 66.2392C157.725 65.9268 158.419 65.7712 159.12 65.786C160.258 65.786 161.147 66.0881 161.786 66.6923C162.426 67.2965 162.745 68.136 162.745 69.2109V75.7761H161.059V70.096C161.059 69.1197 160.854 68.3944 160.443 67.92C160.032 67.4458 159.398 67.2087 158.541 67.2087C158.079 67.2026 157.621 67.2942 157.197 67.4773C156.805 67.6473 156.46 67.9095 156.191 68.2414C155.986 68.4958 155.837 68.7901 155.753 69.1055C155.645 69.6606 155.6 70.2265 155.622 70.7918V75.7761L153.988 75.7761Z" fill="#BE3A26"/>
<path d="M165.233 70.9812C165.228 70.2928 165.361 69.6105 165.623 68.9738C165.884 68.3423 166.271 67.7705 166.761 67.293C167.246 66.8101 167.823 66.4286 168.457 66.1707C169.1 65.9122 169.788 65.7815 170.481 65.7859C171.165 65.7826 171.844 65.9151 172.477 66.1759C173.116 66.4424 173.697 66.8287 174.19 67.314C174.68 67.7865 175.068 68.3552 175.328 68.9844C175.589 69.6176 175.721 70.2964 175.718 70.9813C175.722 71.6629 175.59 72.3384 175.328 72.9678C175.066 73.5928 174.678 74.1576 174.19 74.6274C173.695 75.1209 173.11 75.5144 172.467 75.7867C171.838 76.0521 171.163 76.1882 170.481 76.1871C169.788 76.1906 169.102 76.0562 168.463 75.7919C167.182 75.2626 166.161 74.2498 165.623 72.9731C165.36 72.3421 165.227 71.6646 165.233 70.9812ZM166.982 70.9812C166.971 71.4588 167.056 71.9337 167.232 72.378C167.407 72.8222 167.67 73.2269 168.004 73.5683C168.32 73.9083 168.703 74.1783 169.13 74.3608C169.556 74.5432 170.017 74.634 170.48 74.6273C170.941 74.6339 171.398 74.5429 171.821 74.3604C172.245 74.1778 172.624 73.9079 172.936 73.5683C173.586 72.8637 173.947 71.9401 173.947 70.9812C173.947 70.0224 173.586 69.0987 172.936 68.3941C172.624 68.0545 172.245 67.7846 171.821 67.6021C171.398 67.4196 170.941 67.3286 170.48 67.3351C170.016 67.3274 169.554 67.4177 169.127 67.6002C168.699 67.7827 168.315 68.0532 167.999 68.3941C167.666 68.7362 167.405 69.1412 167.23 69.5854C167.056 70.0296 166.971 70.5041 166.982 70.9812H166.982Z" fill="#BE3A26"/>
<path d="M178.373 75.776V59.4422H180.059V75.776H178.373Z" fill="#BE3A26"/>
<path d="M182.736 70.9812C182.732 70.2928 182.865 69.6105 183.126 68.9738C183.388 68.3423 183.775 67.7705 184.265 67.293C184.75 66.8101 185.327 66.4286 185.961 66.1707C186.604 65.9122 187.291 65.7815 187.984 65.7859C188.669 65.7826 189.348 65.9151 189.981 66.1759C190.62 66.4424 191.201 66.8287 191.694 67.314C192.184 67.7865 192.572 68.3552 192.832 68.9844C193.093 69.6177 193.225 70.2964 193.222 70.9813C193.226 71.6628 193.093 72.3383 192.832 72.9678C192.57 73.5928 192.182 74.1576 191.694 74.6274C191.199 75.1209 190.614 75.5145 189.971 75.7867C189.342 76.0521 188.667 76.1882 187.984 76.1871C187.292 76.1906 186.606 76.0562 185.966 75.7919C184.686 75.2626 183.665 74.2498 183.126 72.9731C182.864 72.3421 182.731 71.6646 182.736 70.9812ZM184.486 70.9812C184.475 71.4588 184.56 71.9337 184.736 72.3779C184.911 72.8222 185.174 73.2269 185.508 73.5683C185.824 73.9083 186.207 74.1783 186.634 74.3608C187.06 74.5432 187.52 74.634 187.984 74.6273C188.445 74.6339 188.902 74.5429 189.325 74.3604C189.749 74.1779 190.128 73.9079 190.44 73.5683C191.09 72.8637 191.451 71.9401 191.451 70.9812C191.451 70.0224 191.09 69.0987 190.44 68.3941C190.128 68.0545 189.748 67.7846 189.325 67.6021C188.902 67.4196 188.445 67.3286 187.984 67.3351C187.52 67.3274 187.058 67.4177 186.631 67.6002C186.203 67.7827 185.819 68.0532 185.503 68.3941C185.17 68.7362 184.909 69.1412 184.734 69.5854C184.559 70.0296 184.475 70.5041 184.486 70.9812H184.486Z" fill="#BE3A26"/>
<path d="M204.771 66.1338V75.6074C204.771 76.6542 204.7 77.3989 204.56 77.8416C204.419 78.2849 204.181 78.6916 203.865 79.0323C203.409 79.5206 202.844 79.8927 202.215 80.1176C201.496 80.368 200.738 80.4893 199.976 80.476C198.515 80.476 197.375 80.1423 196.556 79.4748C195.738 78.8074 195.311 77.8625 195.276 76.6401H197.131V76.7667C197.114 77.0853 197.172 77.4034 197.303 77.6948C197.433 77.9861 197.63 78.2423 197.879 78.4422C198.378 78.8356 199.084 79.0323 199.997 79.0324C200.577 79.0481 201.154 78.9384 201.688 78.711C202.136 78.5136 202.511 78.1799 202.758 77.7574C202.912 77.501 203.019 77.219 203.074 76.9248C203.148 76.4757 203.179 76.0206 203.169 75.5656V73.9427C202.832 74.5932 202.326 75.141 201.704 75.5286C201.091 75.8998 200.387 76.0915 199.67 76.0818C198.286 76.0818 197.171 75.6111 196.325 74.6698C195.478 73.7285 195.055 72.4779 195.055 70.918C195.055 69.3445 195.466 68.0957 196.288 67.1717C197.11 66.248 198.209 65.7861 199.586 65.7859C200.325 65.7698 201.054 65.9576 201.694 66.3288C202.316 66.7107 202.814 67.2654 203.127 67.9253V66.1338H204.771ZM203.169 70.9812C203.169 69.8995 202.874 69.0283 202.284 68.3677C201.992 68.0415 201.632 67.7836 201.23 67.6124C200.827 67.4412 200.392 67.361 199.955 67.3773C198.964 67.3773 198.191 67.6829 197.636 68.294C197.081 68.9051 196.804 69.7587 196.804 70.8548C196.804 72.0211 197.083 72.9203 197.642 73.5523C198.2 74.1848 198.992 74.501 200.018 74.5009C201.002 74.5009 201.773 74.19 202.331 73.5682C202.89 72.9464 203.169 72.0841 203.169 70.9812Z" fill="#BE3A26"/>
<path d="M207.806 61.4864C207.804 61.3284 207.834 61.1716 207.895 61.0258C207.955 60.8799 208.045 60.748 208.159 60.6382C208.271 60.5238 208.404 60.4334 208.552 60.3727C208.7 60.312 208.858 60.2822 209.018 60.2851C209.176 60.2831 209.334 60.3139 209.48 60.3756C209.626 60.4373 209.757 60.5285 209.866 60.6436C209.981 60.7563 210.071 60.8909 210.131 61.0395C210.192 61.188 210.222 61.3472 210.219 61.5076C210.222 61.6644 210.193 61.8202 210.133 61.9652C210.073 62.1102 209.984 62.2414 209.871 62.3507C209.76 62.4638 209.628 62.5531 209.481 62.6129C209.334 62.6726 209.176 62.7017 209.018 62.6983C208.859 62.7014 208.701 62.6723 208.553 62.6125C208.405 62.5528 208.271 62.4637 208.159 62.3507C208.044 62.2388 207.953 62.1043 207.892 61.9555C207.831 61.8068 207.802 61.6471 207.806 61.4864ZM208.196 75.776V66.1338H209.861V75.776H208.196Z" fill="#BE3A26"/>
<path d="M221.947 71.2025H214.307V71.3502C214.307 72.3828 214.602 73.2171 215.193 73.8529C215.486 74.1681 215.844 74.4164 216.243 74.581C216.641 74.7455 217.07 74.8225 217.5 74.8066C218.123 74.8137 218.733 74.6318 219.25 74.2849C219.826 73.8741 220.299 73.3347 220.63 72.7095L221.884 73.5524C221.467 74.3711 220.825 75.0539 220.034 75.5206C219.243 75.9872 218.334 76.2184 217.416 76.187C215.948 76.187 214.76 75.7023 213.854 74.7328C212.948 73.7633 212.495 72.4917 212.495 70.918C212.495 69.4077 212.945 68.1713 213.844 67.2087C214.285 66.7343 214.823 66.3599 215.421 66.1109C216.019 65.8619 216.663 65.7439 217.311 65.765C218.737 65.765 219.866 66.2217 220.699 67.135C221.531 68.0483 221.948 69.2952 221.948 70.8758L221.947 71.2025ZM220.177 69.8642C220.121 69.0143 219.838 68.3592 219.329 67.8989C218.819 67.4386 218.122 67.2085 217.237 67.2087C216.498 67.1782 215.776 67.4396 215.228 67.9364C214.68 68.4332 214.349 69.1256 214.307 69.8642L220.177 69.8642Z" fill="#BE3A26"/>
<path d="M223.413 74.1532L224.825 73.2048C225.053 73.6732 225.402 74.0718 225.837 74.3586C226.271 74.6226 226.772 74.7562 227.28 74.7434C227.751 74.7656 228.215 74.6241 228.592 74.3429C228.753 74.2193 228.882 74.0593 228.969 73.8762C229.056 73.693 229.099 73.4918 229.093 73.2891C229.097 73.1326 229.069 72.9769 229.01 72.8318C228.951 72.6867 228.863 72.5554 228.751 72.4461C228.407 72.158 228.007 71.9461 227.575 71.8244L227.302 71.7295C224.955 70.9216 223.782 69.9099 223.782 68.6945C223.771 68.2959 223.85 67.9001 224.015 67.5368C224.179 67.1735 224.424 66.8523 224.73 66.5974C225.363 66.0566 226.185 65.7861 227.196 65.7859C227.944 65.7649 228.684 65.9374 229.346 66.2865C229.924 66.5987 230.377 67.0988 230.632 67.704L229.293 68.5258C229.114 68.1044 228.811 67.7477 228.424 67.5037C228.023 67.2598 227.56 67.1355 227.091 67.1452C226.659 67.1269 226.235 67.2717 225.905 67.551C225.757 67.6793 225.638 67.839 225.559 68.0185C225.48 68.1981 225.442 68.393 225.447 68.5892C225.447 69.1791 226.086 69.6744 227.365 70.0749C227.604 70.1524 227.793 70.2121 227.934 70.2541C228.981 70.5913 229.709 70.976 230.12 71.408C230.544 71.8748 230.766 72.4906 230.737 73.1205C230.751 73.5396 230.67 73.9565 230.502 74.3405C230.333 74.7244 230.08 75.0655 229.762 75.3386C229.112 75.9042 228.264 76.187 227.217 76.187C226.423 76.211 225.635 76.0372 224.925 75.6812C224.283 75.3303 223.757 74.7992 223.413 74.1532Z" fill="#BE3A26"/>
</svg>
